<svg width="414" height="112" viewBox="0 0 414 112" fill="none" xmlns="http://www.w3.org/2000/svg">
<path d="M275.453 0V81.0234C285.448 81.4883 295.415 82.0503 305.355 82.7133V99.8919C289.59 98.8406 273.809 98.043 258.019 97.4992V0H275.453ZM414 0.00970311L391.297 52.6442L413.994 111.217L413.969 111.228C407.352 110.286 400.727 109.39 394.097 108.541L381.351 75.6664L368.484 105.489C362.386 104.815 356.28 104.179 350.16 103.581L372.292 52.2917L352.023 0.0105117H370.883L382.232 29.2686L394.851 0.00970311H414ZM198.181 96.6478V0.00889451H246.85V17.3419H215.616V39.8046H239.249V56.9831H215.616V96.6446L198.181 96.6478ZM133.079 17.3427V0.00808592H187.004V17.3419H168.758V97.1176C162.939 97.2712 157.126 97.4507 151.325 97.6698V17.3427H133.079ZM73.476 102.664V0.0113203H121.903V17.3435H90.9084V40.8218C98.0289 40.7304 108.153 40.6277 114.452 40.6423V57.8224C106.568 57.7254 97.6674 57.9308 90.9084 57.9979V84.0055C101.232 83.1919 111.564 82.4857 121.903 81.8869V99.0671C105.742 99.9994 89.5972 101.199 73.476 102.665V102.664ZM39.2749 62.9521L39.2741 0.00808592H56.709V104.284C50.3357 104.939 43.9737 105.637 37.6238 106.374L17.4341 48.3732V108.858C11.6114 109.616 5.80003 110.406 0 111.232V0.00970311H16.5689L39.2741 62.9521H39.2749ZM319.738 100.928V0.00970311H337.174V102.368C331.369 101.85 325.559 101.373 319.738 100.928V100.928Z" fill="#DB202C"/>
</svg>
