<svg width="48" height="48" viewBox="0 0 48 48" fill="none" xmlns="http://www.w3.org/2000/svg">
<path fill-rule="evenodd" clip-rule="evenodd" d="M5.52523 24.0001L14.7628 40.0001H33.2381L42.4757 24.0001L33.2381 8H14.7628L5.52523 24.0001ZM1.48377 23.0001C1.1265 23.6189 1.1265 24.3813 1.48377 25.0001L11.8761 43.0001C12.2333 43.6189 12.8936 44.0001 13.6081 44.0001H34.3927C35.1073 44.0001 35.7675 43.6189 36.1247 43.0001L46.5171 25.0001C46.8743 24.3813 46.8743 23.6189 46.5171 23.0001L36.1247 5C35.7675 4.3812 35.1073 4 34.3927 4H13.6081C12.8936 4 12.2333 4.3812 11.8761 5L1.48377 23.0001ZM27.0007 30.9999C27.0007 32.6569 25.6575 33.9999 24.0007 33.9999C22.3437 33.9999 21.0007 32.6569 21.0007 30.9999C21.0007 29.3431 22.3437 27.9999 24.0007 27.9999C25.6575 27.9999 27.0007 29.3431 27.0007 30.9999ZM27.0007 13.9999H21.0007L22.0007 25.9999H26.0007L27.0007 13.9999Z" fill="black" fill-opacity="0.7"/>
</svg>
