<svg width="46" height="40" viewBox="0 0 46 40" fill="none" xmlns="http://www.w3.org/2000/svg">
<path fill-rule="evenodd" clip-rule="evenodd" d="M4.30941 20.0001L13.547 36.0001H32.0223L41.2599 20.0001L32.0223 4H13.547L4.30941 20.0001ZM0.267948 19.0001C-0.0893163 19.6189 -0.0893162 20.3813 0.26795 21.0001L10.6602 39.0001C11.0175 39.6189 11.6778 40.0001 12.3923 40.0001H33.1769C33.8915 40.0001 34.5517 39.6189 34.9089 39.0001L45.3013 21.0001C45.6585 20.3813 45.6585 19.6189 45.3013 19.0001L34.9089 1C34.5517 0.3812 33.8915 0 33.1769 0H12.3923C11.6778 0 11.0175 0.3812 10.6602 1L0.267948 19.0001ZM25.7849 26.9999C25.7849 28.6569 24.4417 29.9999 22.7849 29.9999C21.1279 29.9999 19.7849 28.6569 19.7849 26.9999C19.7849 25.3431 21.1279 23.9999 22.7849 23.9999C24.4417 23.9999 25.7849 25.3431 25.7849 26.9999ZM25.7849 9.99992H19.7849L20.7849 21.9999H24.7849L25.7849 9.99992Z" fill="black" fill-opacity="0.7"/>
</svg>
