<svg width="178" height="56" viewBox="0 0 178 56" fill="none" xmlns="http://www.w3.org/2000/svg">
<path d="M168.478 26.8463L177.999 52.0539C175.192 51.6526 172.388 51.1506 169.53 50.6997L164.168 36.7694L158.656 49.5483C155.95 49.0974 153.293 48.9456 150.588 48.5954L160.26 26.5457L151.489 3.9458H159.609L164.519 16.5729L169.781 3.9458H177.999L168.478 26.8463ZM145.076 3.9458H137.709V47.644C140.114 47.7943 142.62 47.8935 145.076 48.1941V3.9458ZM131.344 47.1419C124.63 46.691 117.914 46.2912 111.05 46.1394V3.9458H118.565V39.024C122.876 39.1247 127.185 39.4749 131.344 39.6748V47.1419ZM103.031 21.034V28.5507H92.7592V45.6389H85.3417V3.9458H106.389V11.4626H92.7592V21.034H103.031ZM72.713 11.4626V46.0402C70.2074 46.0402 67.6523 46.0402 65.1963 46.1394V11.4626H57.4285V3.9458H80.5304V11.4626H72.713ZM49.3105 28.9505C46.0038 28.9505 42.0944 28.9505 39.2882 29.1023V40.2775C43.6982 39.9754 48.1081 39.6252 52.5677 39.4749V46.691L31.7715 48.3459V3.9458H52.5677V11.4626H39.2882V21.5841C42.1951 21.5841 46.6547 21.4338 49.3105 21.4338V28.9505ZM7.66706 24.742V51.0003C4.96157 51.3024 2.55518 51.6526 0 52.0539V3.9458H7.16654L16.9379 31.2577V3.9458H24.4546V48.9456C21.7987 49.398 19.0932 49.5483 16.2359 49.9481L7.66706 24.742Z" fill="#E50914"/>
</svg>
