<svg width="178" height="49" viewBox="0 0 178 49" fill="none" xmlns="http://www.w3.org/2000/svg">
<path d="M168.479 22.9006L178 48.1084C175.193 47.7071 172.389 47.205 169.531 46.7541L164.168 32.8238L158.657 45.6028C155.951 45.1519 153.294 45 150.588 44.6498L160.261 22.6L151.49 0H159.61L164.52 12.6272L169.782 0H178L168.479 22.9006ZM145.077 0H137.71V43.6984C140.115 43.8487 142.621 43.9479 145.077 44.2485V0ZM131.345 43.1964C124.631 42.7455 117.915 42.3456 111.05 42.1938V0H118.566V35.0784C122.876 35.1791 127.186 35.5293 131.345 35.7292V43.1964ZM103.032 17.0883V24.6051H92.7597V41.6933H85.3421V0H106.389V7.51679H92.7597V17.0883H103.032ZM72.7134 7.51679V42.0946C70.2078 42.0946 67.6526 42.0946 65.1966 42.1938V7.51679H57.4288V0H80.5308V7.51679H72.7134ZM49.3108 25.0049C46.0041 25.0049 42.0946 25.0049 39.2884 25.1567V36.3319C43.6984 36.0298 48.1084 35.6796 52.5679 35.5293V42.7455L31.7716 44.4003V0H52.5679V7.51679H39.2884V17.6384C42.1953 17.6384 46.6549 17.4881 49.3108 17.4881V25.0049ZM7.6671 20.7963V47.0547C4.96159 47.3568 2.5552 47.7071 0 48.1084V0H7.16658L16.938 27.3121V0H24.4548V45C21.7988 45.4525 19.0933 45.6028 16.236 46.0026L7.6671 20.7963Z" fill="#E50914"/>
</svg>
